<?xml version="1.0" encoding="UTF-8" standalone="no"?>
<!DOCTYPE svg PUBLIC "-//W3C//DTD SVG 1.1//EN" "http://www.w3.org/Graphics/SVG/1.1/DTD/svg11.dtd">
<svg width="100%" height="100%" viewBox="0 0 372 372" version="1.1" xmlns="http://www.w3.org/2000/svg" xmlns:xlink="http://www.w3.org/1999/xlink" xml:space="preserve" xmlns:serif="http://www.serif.com/" style="fill-rule:evenodd;clip-rule:evenodd;stroke-linejoin:round;stroke-miterlimit:2;">
    <g id="ArtBoard1" transform="matrix(1,0,0,1,-83,-30)">
        <rect x="83" y="30" width="372" height="372" style="fill:none;"/>
        <g id="Grundschule" transform="matrix(1,0,0,1,13,0)">
            <g transform="matrix(0.095238,-0,-0,-0.095238,-498.523055,740.823242)">
                <path d="M7712,6522C7628,6499 7567,6439 7573,6384C7576,6353 7583,6353 7670,6385C7849,6449 8014,6351 8014,6181C8014,6073 8002,6046 7701,5492C7624,5350 7559,5227 7555,5219C7550,5205 7590,5203 7883,5206C8066,5207 8232,5211 8250,5214C8290,5220 8289,5209 8274,5439C8269,5523 8259,5698 8253,5828C8240,6097 8219,6222 8171,6317C8127,6403 8045,6478 7964,6503C7896,6525 7761,6535 7712,6522Z" style="fill:rgb(34,90,147);fill-rule:nonzero;"/>
            </g>
            <g transform="matrix(0.095238,-0,-0,-0.095238,-498.523055,740.823242)">
                <path d="M7012,6424C6985,6403 6974,6365 6951,6214C6934,6109 6932,6074 6942,6068C6953,6061 7100,6052 7307,6045L7374,6043L7446,6230C7486,6334 7517,6420 7515,6422C7514,6423 7404,6428 7271,6432C7076,6437 7026,6436 7012,6424Z" style="fill:rgb(34,90,147);fill-rule:nonzero;"/>
            </g>
            <g transform="matrix(0.095238,-0,-0,-0.095238,-498.523055,740.823242)">
                <path d="M7660,6312C7607,6288 7551,6226 7521,6158C7499,6108 7298,5634 7161,5309C7080,5118 7075,5075 7127,5029C7161,4998 7193,4991 7271,4997C7326,5001 7345,5024 7424,5173C7466,5253 7589,5484 7698,5688C7807,5891 7903,6077 7912,6101C7946,6197 7920,6287 7849,6316C7799,6337 7710,6335 7660,6312Z" style="fill:rgb(34,90,147);fill-rule:nonzero;"/>
            </g>
            <g transform="matrix(0.095238,-0,-0,-0.095238,-498.523055,740.823242)">
                <path d="M6951,5948C6932,5925 6877,5582 6880,5508C6883,5450 6886,5443 6916,5422C6988,5374 7097,5382 7117,5437C7123,5452 7173,5574 7228,5707C7284,5840 7329,5952 7329,5956C7329,5960 7247,5964 7147,5964C6996,5964 6962,5961 6951,5948Z" style="fill:rgb(34,90,147);fill-rule:nonzero;"/>
            </g>
            <g transform="matrix(0.095238,-0,-0,-0.095238,-498.523055,740.823242)">
                <path d="M8346,5799C8340,5761 8352,5409 8359,5394C8371,5373 8630,5200 8674,5185C8692,5179 8734,5176 8769,5179C8851,5185 8888,5218 8888,5285C8888,5310 8881,5339 8873,5350C8864,5360 8755,5456 8631,5563C8507,5669 8392,5768 8376,5781C8360,5795 8347,5803 8346,5799Z" style="fill:rgb(34,90,147);fill-rule:nonzero;"/>
            </g>
            <g transform="matrix(0.095238,-0,-0,-0.095238,-498.523055,740.823242)">
                <path d="M7566,5095C7576,5079 7600,5043 7618,5014C7637,4985 7706,4876 7772,4772C7838,4668 7901,4567 7911,4548C7926,4519 7933,4514 7952,4520C8020,4541 8015,4545 8064,4434C8089,4378 8122,4303 8138,4268C8154,4234 8210,4106 8263,3985C8415,3637 8427,3614 8455,3607C8484,3599 8928,3710 8964,3734C8982,3745 8988,3759 8988,3790C8988,3859 8968,3872 8820,3902C8720,3921 8684,3933 8667,3951C8655,3964 8623,4026 8596,4090C8569,4153 8508,4297 8459,4410C8382,4588 8373,4617 8385,4631C8393,4640 8400,4653 8400,4660C8400,4671 8310,4904 8246,5058L8219,5124L7547,5124L7566,5095Z" style="fill:rgb(34,90,147);fill-rule:nonzero;"/>
            </g>
            <g transform="matrix(0.095238,-0,-0,-0.095238,-498.523055,740.823242)">
                <path d="M7545,4849C7537,4835 7503,4769 7470,4700C7410,4577 7410,4575 7428,4545L7446,4515L7151,4203C6989,4032 6857,3884 6857,3874C6857,3853 6888,3824 7028,3717C7180,3602 7205,3592 7327,3591C7437,3591 7482,3607 7493,3649C7501,3682 7482,3707 7378,3796L7297,3867L7326,3900C7342,3918 7398,3977 7450,4032C7742,4340 7854,4461 7854,4468C7854,4476 7811,4536 7653,4749C7563,4870 7560,4872 7545,4849Z" style="fill:rgb(34,90,147);fill-rule:nonzero;"/>
            </g>
            <g transform="matrix(1,0,0,1,-5.81546,0)">
                <circle cx="261.815" cy="77.976" r="35.815" style="fill:rgb(34,90,147);"/>
            </g>
        </g>
    </g>
</svg>
